# xmcd
#
# Track frame offsets:
#	205
#	13565
#	29265
#	41908
#	55605
#	70655
#	88248
#	105683
#	129693
#	148110
#	167555
#	184980
#	199548
#	215843
#	230908
#	250748
#
# Disc length: 3501 seconds
# Revision: 0
# Processed by: cddbd v1.5.2PL0 Copyright (c) Steve Scherf et al.
# Submitted via: dBpowerAMP V12.0
#
DISCID=eb0dab10
DTITLE=Various Artist - Sweet Soul Music
DYEAR=1900
DGENRE=Soul
TTITLE0=Percy Sledge - When A Man Loves A Woman
TTITLE1=Johnny Bristol - Man Up In The Sky
TTITLE2=Brook Benton - The Boll Weevil Song
TTITLE3=Clarence Carter - Patches
TTITLE4=The Detroit Emeralds - Feel The Need In Me
TTITLE5=Archie Bell and The Drells - Look Back Over Your Shoulder
TTITLE6=Joyce Simms - Who's Crying Now
TTITLE7=Ronnie Dyson and Barbara Ingram - Let The Love Begin
TTITLE8=Billy Eckstine - Ask The Lonely
TTITLE9=Blue Magic - My Magic Is Real
TTITLE10=Carolyn Crawford - Timeless
TTITLE11=The Andantes - My World Is Empty Without You
TTITLE12=The Fantastic Four - Ain't No Soul Left In These Old Shoes
TTITLE13=J J Barnes - Our Love Is In The Pocket
TTITLE14=Billy Calvin - Wishing On A Star
TTITLE15=The Fantastics - Something Old, Something New
EXTD=
EXTT0=
EXTT1=
EXTT2=
EXTT3=
EXTT4=
EXTT5=
EXTT6=
EXTT7=
EXTT8=
EXTT9=
EXTT10=
EXTT11=
EXTT12=
EXTT13=
EXTT14=
EXTT15=
PLAYORDER=
